<svg width="97" height="59" viewBox="0 0 97 59" fill="none" xmlns="http://www.w3.org/2000/svg">
<path d="M48.437 9.13748L28.7886 28.79L48.4411 48.4385L68.0896 28.7859L48.437 9.13748Z" fill="#93278F"/>
<path d="M48.4385 48.4392C44.5521 52.3255 39.601 54.972 34.2104 56.0442C28.8199 57.1164 23.2325 56.5659 18.1548 54.4626C13.077 52.3593 8.73706 48.7976 5.68359 44.2278C2.63013 39.6579 1 34.2852 1 28.789C1 23.2929 2.63013 17.9202 5.68359 13.3503C8.73706 8.78045 13.077 5.21875 18.1548 3.11545C23.2325 1.01215 28.8199 0.461707 34.2104 1.5339C39.601 2.6061 44.5521 5.25283 48.4385 9.13913C51.0197 11.7192 53.0673 14.7824 54.4644 18.154C55.8614 21.5256 56.5806 25.1395 56.5806 28.789C56.5806 32.4386 55.8614 36.0524 54.4644 39.424C53.0673 42.7957 51.0197 45.8591 48.4385 48.4392Z" fill="#93278F"/>
<path d="M87.2939 48.8872C83.4076 52.7735 78.456 55.42 73.0654 56.4922C67.6749 57.5644 62.0875 57.0139 57.0098 54.9106C51.932 52.8073 47.592 49.2456 44.5386 44.6758C41.4851 40.1059 39.855 34.7331 39.855 29.237C39.855 23.7409 41.4851 18.3682 44.5386 13.7983C47.592 9.22844 51.932 5.66675 57.0098 3.56344C62.0875 1.46014 67.6749 0.909705 73.0654 1.9819C78.456 3.0541 83.4076 5.70082 87.2939 9.58713C92.5028 14.8 95.4287 21.8677 95.4287 29.237C95.4287 36.6063 92.5028 43.6743 87.2939 48.8872Z" fill="#F7931E"/>
<path d="M48.437 9.13748L28.7886 28.79L48.4411 48.4385L68.0896 28.7859L48.437 9.13748Z" fill="#8E1611"/>
</svg>
