<svg width="827" height="206" viewBox="0 0 827 206" fill="none" xmlns="http://www.w3.org/2000/svg">
<path d="M175.823 175.833C161.418 190.238 143.068 200.047 123.089 204.021C103.11 207.995 82.4011 205.955 63.5813 198.159C44.7615 190.363 28.6761 177.162 17.359 160.224C6.04179 143.285 0 123.371 0 103C0 82.6286 6.04179 62.7146 17.359 45.7764C28.6761 28.8382 44.7615 15.6368 63.5813 7.8409C82.4011 0.0450182 103.11 -1.99518 123.089 1.97891C143.068 5.95301 161.418 15.7631 175.823 30.1677C185.39 39.7306 192.979 51.0845 198.157 63.5814C203.334 76.0782 206 89.4729 206 103C206 116.527 203.334 129.922 198.157 142.419C192.979 154.916 185.39 166.27 175.823 175.833Z" fill="#93278F"/>
<path d="M319.149 175.833C304.743 190.238 286.388 200.047 266.407 204.021C246.425 207.995 225.714 205.955 206.892 198.159C188.07 190.363 171.982 177.162 160.664 160.224C149.345 143.285 143.303 123.371 143.303 103C143.303 82.6286 149.345 62.7146 160.664 45.7764C171.982 28.8382 188.07 15.6368 206.892 7.8409C225.714 0.0450182 246.425 -1.99518 266.407 1.97891C286.388 5.95301 304.743 15.7631 319.149 30.1677C338.457 49.4893 349.303 75.6857 349.303 103C349.303 130.314 338.457 156.512 319.149 175.833Z" fill="#F7931E"/>
<path d="M174.835 30.0001L102 102.829L174.851 175.642L247.686 102.813L174.835 30.0001Z" fill="#93278F"/>
<path d="M174.835 30.0001L102 102.829L174.851 175.642L247.686 102.813L174.835 30.0001Z" fill="#F7931E"/>
<path d="M765.363 169.639C765.363 168.376 765.883 167.337 766.7 166.223L782.15 147.065L767.591 129.021C766.848 128.056 766.18 126.868 766.18 125.605C766.18 123.081 768.111 121.15 770.711 121.15C772.642 121.15 773.756 121.892 774.87 123.378L788.018 140.679L801.016 123.675C802.205 122.041 803.467 121.15 805.473 121.15C807.478 121.15 809.632 122.784 809.632 125.308C809.632 126.645 809.112 127.684 808.221 128.798L793.663 146.916L808.964 166C809.707 166.965 810.375 168.079 810.375 169.416C810.375 171.94 808.444 173.871 805.844 173.871C803.913 173.871 802.799 173.129 801.685 171.643L787.72 153.451L773.979 171.346C772.716 172.98 771.528 173.871 769.522 173.871C767.443 173.871 765.363 172.237 765.363 169.639Z" fill="black"/>
<path d="M726.218 174.317C712.7 174.317 704.083 166.52 704.083 151.446V125.679C704.083 123.155 706.089 121.15 708.689 121.15C711.214 121.15 713.22 123.155 713.22 125.679V151.075C713.22 160.728 718.196 165.852 726.367 165.852C734.463 165.852 739.44 161.025 739.44 151.446V125.679C739.44 123.155 741.445 121.15 744.045 121.15C746.57 121.15 748.576 123.155 748.576 125.679V151.001C748.576 166.52 739.811 174.317 726.218 174.317Z" fill="black"/>
<path d="M652.935 168.896V125.679C652.935 123.155 654.941 121.15 657.54 121.15C660.066 121.15 662.071 123.155 662.071 125.679V165.183H685.617C687.92 165.183 689.777 167.04 689.777 169.342C689.777 171.643 687.92 173.5 685.617 173.5H657.54C654.941 173.5 652.935 171.495 652.935 168.896Z" fill="black"/>
<path d="M596.763 169.342V126.125C596.763 123.526 598.768 121.521 601.368 121.521H631.673C633.976 121.521 635.833 123.378 635.833 125.68C635.833 127.981 633.976 129.838 631.673 129.838H605.899V144.021H628.331C630.633 144.021 632.49 145.877 632.49 148.179C632.49 150.481 630.633 152.337 628.331 152.337H605.899V169.342C605.899 171.866 603.893 173.871 601.368 173.871C598.768 173.871 596.763 171.866 596.763 169.342Z" fill="black"/>
<path d="M530.652 169.416V125.828C530.652 123.303 532.658 121.224 535.258 121.224H536.223C538.452 121.224 539.714 122.338 540.977 123.897L566.974 157.535V125.605C566.974 123.155 568.98 121.15 571.431 121.15C573.956 121.15 575.962 123.155 575.962 125.605V169.267C575.962 171.792 574.031 173.797 571.505 173.797H571.134C568.98 173.797 567.643 172.683 566.38 171.049L539.64 136.446V169.416C539.64 171.866 537.634 173.871 535.183 173.871C532.658 173.871 530.652 171.866 530.652 169.416Z" fill="black"/>
<path d="M484.926 174.391C468.957 174.391 457.815 162.287 457.815 147.659V147.511C457.815 132.882 469.105 120.63 485.075 120.63C501.045 120.63 512.186 132.734 512.186 147.362V147.511C512.186 162.139 500.896 174.391 484.926 174.391ZM485.075 165.926C495.399 165.926 502.604 157.758 502.604 147.659V147.511C502.604 137.412 495.251 129.021 484.926 129.021C474.602 129.021 467.397 137.263 467.397 147.362V147.511C467.397 157.609 474.75 165.926 485.075 165.926Z" fill="black"/>
<path d="M423.443 174.391C408.29 174.391 397 162.584 397 147.659V147.511C397 132.734 408.067 120.63 423.814 120.63C431.836 120.63 437.11 123.006 441.641 126.496C442.607 127.239 443.424 128.501 443.424 130.135C443.424 132.659 441.418 134.59 438.893 134.59C437.63 134.59 436.739 134.145 436.144 133.699C432.579 130.803 428.717 129.021 423.74 129.021C413.861 129.021 406.582 137.189 406.582 147.362V147.511C406.582 157.683 413.787 165.926 423.74 165.926C429.237 165.926 432.95 164.144 436.739 160.951C437.407 160.357 438.373 159.911 439.487 159.911C441.79 159.911 443.795 161.842 443.795 164.144C443.795 165.555 443.127 166.668 442.309 167.411C437.407 171.718 431.836 174.391 423.443 174.391Z" fill="black"/>
<path d="M791.893 84.3937C789.294 84.3937 787.288 82.3888 787.288 79.7899V37.0189C787.288 34.4199 789.294 32.415 791.893 32.415H822.124C824.353 32.415 826.21 34.2714 826.21 36.4991C826.21 38.801 824.353 40.5831 822.124 40.5831H796.424V54.0976H818.782C821.01 54.0976 822.867 55.9539 822.867 58.2559C822.867 60.4835 821.01 62.2656 818.782 62.2656H796.424V76.2256H822.496C824.724 76.2256 826.581 78.082 826.581 80.3097C826.581 82.6116 824.724 84.3937 822.496 84.3937H791.893Z" fill="black"/>
<path d="M745.663 85.1362C743.138 85.1362 741.429 83.7253 740.464 81.4234L722.266 38.6524C721.968 37.9841 721.746 37.3158 721.746 36.499C721.746 34.0486 723.751 32.0437 726.351 32.0437C728.728 32.0437 730.288 33.3803 731.03 35.3109L746.034 72.8098L761.261 35.0139C761.856 33.4545 763.49 32.0437 765.644 32.0437C768.169 32.0437 770.175 33.9743 770.175 36.4248C770.175 37.0931 769.952 37.8356 769.729 38.3554L751.457 81.4234C750.491 83.7253 748.783 85.1362 746.183 85.1362H745.663Z" fill="black"/>
<path d="M694.903 80.2353V36.5733C694.903 34.0486 696.908 32.0437 699.508 32.0437C702.033 32.0437 704.039 34.0486 704.039 36.5733V80.2353C704.039 82.76 702.033 84.7649 699.508 84.7649C696.908 84.7649 694.903 82.76 694.903 80.2353Z" fill="black"/>
<path d="M651.566 80.2354V40.8801H638.939C636.562 40.8801 634.705 38.9495 634.705 36.6476C634.705 34.3457 636.562 32.415 638.939 32.415H673.478C675.781 32.415 677.638 34.3457 677.638 36.6476C677.638 38.9495 675.781 40.8801 673.478 40.8801H660.777V80.2354C660.777 82.7601 658.697 84.765 656.171 84.765C653.646 84.765 651.566 82.7601 651.566 80.2354Z" fill="black"/>
<path d="M576.296 80.5323C576.296 79.864 576.519 79.1957 576.89 78.4531L596.202 35.3851C597.242 33.0832 599.099 31.6724 601.699 31.6724H602.145C604.744 31.6724 606.527 33.0832 607.567 35.3851L626.879 78.4531C627.25 79.1214 627.399 79.7897 627.399 80.3838C627.399 82.8342 625.542 84.7648 623.091 84.7648C620.937 84.7648 619.451 83.5025 618.634 81.5719L614.4 71.8444H589.146L584.764 81.8689C584.021 83.7253 582.461 84.7648 580.53 84.7648C578.153 84.7648 576.296 82.9085 576.296 80.5323ZM592.637 63.7506H610.909L601.773 42.7364L592.637 63.7506Z" fill="black"/>
<path d="M527.279 84.3937C524.679 84.3937 522.673 82.3888 522.673 79.7899V37.0189C522.673 34.4199 524.679 32.415 527.279 32.415H557.51C559.738 32.415 561.595 34.2714 561.595 36.4991C561.595 38.801 559.738 40.5831 557.51 40.5831H531.81V54.0976H554.167C556.395 54.0976 558.252 55.9539 558.252 58.2559C558.252 60.4835 556.395 62.2656 554.167 62.2656H531.81V76.2256H557.881C560.109 76.2256 561.966 78.082 561.966 80.3097C561.966 82.6116 560.109 84.3937 557.881 84.3937H527.279Z" fill="black"/>
<path d="M461.568 80.2354V37.0189C461.568 34.4199 463.574 32.415 466.174 32.415H484.743C491.279 32.415 496.405 34.3457 499.747 37.6129C502.495 40.4346 504.055 44.2959 504.055 48.8254V48.974C504.055 57.2905 499.227 62.3399 492.245 64.4933L502.198 77.0424C503.09 78.1563 503.684 79.1216 503.684 80.5324C503.684 83.0571 501.53 84.765 499.301 84.765C497.222 84.765 495.885 83.7997 494.845 82.3888L482.218 66.2754H470.705V80.2354C470.705 82.7601 468.699 84.765 466.174 84.765C463.574 84.765 461.568 82.7601 461.568 80.2354ZM470.705 58.1816H484.075C490.611 58.1816 494.771 54.7659 494.771 49.4937V49.3452C494.771 43.7761 490.76 40.7316 484 40.7316H470.705V58.1816Z" fill="black"/>
<path d="M423.443 85.2847C408.29 85.2847 397 73.4781 397 58.5528V58.4043C397 43.6275 408.067 31.5239 423.814 31.5239C431.836 31.5239 437.11 33.9001 441.641 37.3901C442.607 38.1326 443.424 39.395 443.424 41.0286C443.424 43.5533 441.418 45.4839 438.893 45.4839C437.63 45.4839 436.739 45.0384 436.144 44.5928C432.579 41.6969 428.717 39.9148 423.74 39.9148C413.861 39.9148 406.582 48.0828 406.582 58.2558V58.4043C406.582 68.5773 413.787 76.8196 423.74 76.8196C429.237 76.8196 432.95 75.0375 436.739 71.8445C437.407 71.2505 438.373 70.8049 439.487 70.8049C441.79 70.8049 443.795 72.7356 443.795 75.0375C443.795 76.4483 443.127 77.5622 442.309 78.3047C437.407 82.6115 431.836 85.2847 423.443 85.2847Z" fill="black"/>
</svg>
